# xmcd CD database file
#
# Track frame offsets:
#	182
#	25545
#	47065
#	66730
#	91632
#	112720
#	137695
#	161637
#
# Disc length: 2444 seconds
#
# Revision: 0
# Processed by: cddbd v1.5.1PL2 Copyright (c) Steve Scherf et al.
# Submitted via: CDex 1.51
#
DISCID=5d098a08
DTITLE=Luigi Texidor - El Caballero
DYEAR=1980
DGENRE=Salsa
TTITLE0=Pitirre Pa' Guaraguao
TTITLE1=Decencia
TTITLE2=El Ataque Me Da 
TTITLE3=El Llanto De Las Flores
TTITLE4=Mi Testamento
TTITLE5=Preguntale A Las Estrellas 
TTITLE6=Criollo Soy 
TTITLE7=Voy A Gastar Mi Dinero 
EXTD=YEAR: 1980
EXTT0=
EXTT1=
EXTT2=
EXTT3=
EXTT4=
EXTT5=
EXTT6=
EXTT7=
PLAYORDER=
